<svg t="1592989094856" class="icon" viewBox="0 0 1024 1024" version="1.1" xmlns="http://www.w3.org/2000/svg" p-id="21322" width="200" height="200"><path d="M853.333333 390.075733L564.258133 682.666667l96.392534 97.553066 289.1776-292.6592a139.127467 139.127467 0 0 0 0-195.106133L660.7872 0l-96.392533 97.5872zM419.566933 195.106133l289.006934 292.4544 96.392533-97.553066-289.006933-292.488534a135.202133 135.202133 0 0 0-192.785067 0L34.133333 390.075733l96.392534 97.553067z m-192.512 438.954667L516.1984 341.333333 419.84 243.9168 34.133333 634.0608l289.109334 292.5568a135.202133 135.202133 0 0 0 192.750933 0z m722.807467-97.723733l-289.041067 292.522666-289.211733-292.625066-96.392533 97.553066L660.7872 1024l289.109333-292.5568a139.1616 139.1616 0 0 0-0.068266-195.072z" fill="#f6ca9d" p-id="21323"></path></svg>